<svg xmlns="http://www.w3.org/2000/svg" width="1280" height="720" viewBox="0 0 1280 720" fill="none">
  <rect width="1280" height="720" fill="#F5F1E8"/>
  <rect x="80" y="70" width="1120" height="580" rx="30" fill="#FFFDF8" stroke="#D7CCB9"/>
  <text x="130" y="145" fill="#6F907D" font-family="Inter, Arial, sans-serif" font-size="20" letter-spacing="4">ПРАКТИЧЕСКОЕ ЗАДАНИЕ 3</text>
  <text x="130" y="190" fill="#4B5648" font-family="Inter, Arial, sans-serif" font-size="46" font-weight="700">Lost Signal: Grounds</text>
  <text x="130" y="228" fill="#4B5648" font-family="Inter, Arial, sans-serif" font-size="22">Оптимизированный платформер с длинной землёй, блоками, скамейками и колоннами со шипами</text>
  <rect x="130" y="270" width="1020" height="300" rx="24" fill="#F8F3E8" stroke="#D7CCB9"/>
  <path d="M130 570H1150V520L1020 434L860 570H130Z" fill="#D7CBB9"/>
  <rect x="130" y="500" width="210" height="70" fill="#D2C09F"/>
  <rect x="340" y="500" width="48" height="70" fill="#F8F3E8"/>
  <rect x="388" y="500" width="210" height="70" fill="#D2C09F"/>
  <rect x="650" y="500" width="48" height="70" fill="#F8F3E8"/>
  <rect x="698" y="500" width="250" height="70" fill="#D2C09F"/>
  <rect x="930" y="452" width="120" height="22" fill="#D9CFBC"/>
  <rect x="1060" y="390" width="28" height="110" fill="#C7B9A1"/>
  <path d="M1040 424L1060 414V434L1040 424Z" fill="#BF7F6D"/>
  <circle cx="250" cy="470" r="18" fill="#6F907D"/>
  <circle cx="412" cy="454" r="9" fill="#D8BE72"/>
  <circle cx="736" cy="454" r="9" fill="#D8BE72"/>
  <rect x="188" y="487" width="64" height="18" fill="#A98362"/>
  <path d="M610 500L625 472L640 500H610Z" fill="#BF7F6D"/>
  <path d="M640 500L655 472L670 500H640Z" fill="#BF7F6D"/>
  <rect x="1098" y="414" width="52" height="72" stroke="#96ABC4" stroke-width="6" fill="#96ABC4" fill-opacity="0.25"/>
</svg>
