<svg xmlns="http://www.w3.org/2000/svg" width="1280" height="720" viewBox="0 0 1280 720" fill="none">
  <rect width="1280" height="720" fill="#F5F1E8"/>
  <rect x="80" y="70" width="1120" height="580" rx="30" fill="#FFFDF8" stroke="#D5CCB8"/>
  <text x="130" y="145" fill="#6E9581" font-family="Inter, Arial, sans-serif" font-size="20" letter-spacing="4">ПРАКТИЧЕСКОЕ ЗАДАНИЕ 3</text>
  <text x="130" y="190" fill="#4F5A4D" font-family="Inter, Arial, sans-serif" font-size="46" font-weight="700">Lost Signal: Reboot</text>
  <text x="130" y="228" fill="#4F5A4D" font-family="Inter, Arial, sans-serif" font-size="22">Оптимизированный Canvas-платформер с дырами, стенами и итоговой статистикой</text>
  <rect x="130" y="270" width="1020" height="300" rx="24" fill="#F9F4E8" stroke="#D5CCB8"/>
  <path d="M130 570H1150V520L1030 440L860 570H130Z" fill="#D8CCBB"/>
  <rect x="130" y="500" width="180" height="70" fill="#D4C3A1"/>
  <rect x="310" y="500" width="40" height="70" fill="#F9F4E8"/>
  <rect x="350" y="500" width="180" height="70" fill="#D4C3A1"/>
  <rect x="600" y="500" width="40" height="70" fill="#F9F4E8"/>
  <rect x="640" y="500" width="220" height="70" fill="#D4C3A1"/>
  <rect x="940" y="455" width="130" height="24" fill="#D8CFBC"/>
  <rect x="1040" y="390" width="28" height="110" fill="#D8CFBC"/>
  <circle cx="250" cy="470" r="18" fill="#6E9581"/>
  <circle cx="410" cy="455" r="9" fill="#D6BD73"/>
  <circle cx="705" cy="455" r="9" fill="#D6BD73"/>
  <path d="M540 500L555 472L570 500H540Z" fill="#CC8B7A"/>
  <path d="M570 500L585 472L600 500H570Z" fill="#CC8B7A"/>
  <rect x="960" y="420" width="52" height="22" fill="#CC8B7A"/>
  <rect x="1080" y="425" width="46" height="66" stroke="#91A8C7" stroke-width="6" fill="#91A8C7" fill-opacity="0.28"/>
</svg>
