<svg xmlns="http://www.w3.org/2000/svg" width="1280" height="720" viewBox="0 0 1280 720" fill="none">
  <defs>
    <linearGradient id="bg" x1="640" y1="0" x2="640" y2="720" gradientUnits="userSpaceOnUse">
      <stop stop-color="#172343"/>
      <stop offset="1" stop-color="#0A1020"/>
    </linearGradient>
  </defs>
  <rect width="1280" height="720" fill="url(#bg)"/>
  <circle cx="198" cy="122" r="118" fill="#74F0D4" fill-opacity="0.12"/>
  <circle cx="1102" cy="118" r="142" fill="#7CA7FF" fill-opacity="0.12"/>
  <rect x="60" y="40" width="1160" height="100" rx="28" fill="#0E172D" fill-opacity="0.92" stroke="#31456F"/>
  <text x="95" y="95" fill="#74F0D4" font-size="18" font-family="Arial, sans-serif">Практическое задание 3</text>
  <text x="95" y="138" fill="#EEF3FF" font-size="46" font-weight="700" font-family="Arial, sans-serif">Neon Hop</text>
  <text x="95" y="175" fill="#9BACD8" font-size="22" font-family="Arial, sans-serif">Платформер на JavaScript с Canvas API, несколькими уровнями и системой очков</text>
  <rect x="60" y="170" width="280" height="490" rx="28" fill="#0E172D" fill-opacity="0.92" stroke="#31456F"/>
  <rect x="90" y="210" width="100" height="100" rx="18" fill="#18223D" stroke="#31456F"/>
  <rect x="210" y="210" width="100" height="100" rx="18" fill="#18223D" stroke="#31456F"/>
  <rect x="90" y="330" width="100" height="100" rx="18" fill="#18223D" stroke="#31456F"/>
  <rect x="210" y="330" width="100" height="100" rx="18" fill="#18223D" stroke="#31456F"/>
  <text x="115" y="248" fill="#9BACD8" font-size="16" font-family="Arial, sans-serif">Счёт</text>
  <text x="240" y="248" fill="#9BACD8" font-size="16" font-family="Arial, sans-serif">Жизни</text>
  <text x="112" y="368" fill="#9BACD8" font-size="16" font-family="Arial, sans-serif">Уровень</text>
  <text x="232" y="368" fill="#9BACD8" font-size="16" font-family="Arial, sans-serif">Рекорд</text>
  <text x="132" y="287" fill="#EEF3FF" font-size="40" font-weight="700" font-family="Arial, sans-serif">120</text>
  <text x="252" y="287" fill="#EEF3FF" font-size="40" font-weight="700" font-family="Arial, sans-serif">3</text>
  <text x="130" y="407" fill="#EEF3FF" font-size="40" font-weight="700" font-family="Arial, sans-serif">2</text>
  <text x="237" y="407" fill="#EEF3FF" font-size="40" font-weight="700" font-family="Arial, sans-serif">230</text>
  <rect x="90" y="470" width="220" height="54" rx="16" fill="#172A35" stroke="#4BAF9B"/>
  <rect x="90" y="536" width="220" height="54" rx="16" fill="#152036" stroke="#31456F"/>
  <rect x="90" y="602" width="220" height="54" rx="16" fill="#152036" stroke="#31456F"/>
  <text x="165" y="505" fill="#EEF3FF" font-size="22" font-weight="700" font-family="Arial, sans-serif">Старт</text>
  <text x="160" y="571" fill="#EEF3FF" font-size="22" font-weight="700" font-family="Arial, sans-serif">Пауза</text>
  <text x="150" y="637" fill="#EEF3FF" font-size="22" font-weight="700" font-family="Arial, sans-serif">Рестарт</text>
  <rect x="370" y="170" width="850" height="490" rx="28" fill="#0E172D" fill-opacity="0.92" stroke="#31456F"/>
  <rect x="395" y="195" width="800" height="440" rx="22" fill="#101A32"/>
  <path d="M395 635H1195V598L1100 510L980 635H850L730 540L620 635H395Z" fill="#0F1730"/>
  <path d="M450 635L540 515L650 635H450Z" fill="#20325A" fill-opacity="0.6"/>
  <path d="M900 635L1010 490L1135 635H900Z" fill="#19314A" fill-opacity="0.6"/>
  <rect x="412" y="560" width="210" height="28" rx="6" fill="#7CA7FF"/>
  <rect x="700" y="500" width="140" height="24" rx="6" fill="#7CA7FF"/>
  <rect x="900" y="435" width="130" height="24" rx="6" fill="#7CA7FF"/>
  <rect x="1085" y="385" width="18" height="175" fill="#EEF3FF" fill-opacity="0.2"/>
  <rect x="1050" y="560" width="60" height="28" rx="6" fill="#74F0D4"/>
  <path d="M1103 385L1160 412L1103 440V385Z" fill="#FFD166"/>
  <circle cx="760" cy="465" r="12" fill="#FFD166"/>
  <circle cx="957" cy="399" r="12" fill="#FFD166"/>
  <circle cx="553" cy="525" r="12" fill="#FFD166"/>
  <rect x="455" y="504" width="44" height="56" rx="10" fill="#74F0D4"/>
  <rect x="463" y="490" width="28" height="18" rx="6" fill="#EEF3FF"/>
  <rect x="484" y="497" width="6" height="4" fill="#0B1020"/>
  <rect x="459" y="520" width="10" height="18" rx="4" fill="#7CA7FF"/>
  <rect x="485" y="520" width="10" height="18" rx="4" fill="#7CA7FF"/>
  <text x="525" y="236" fill="#EEF3FF" font-size="24" font-weight="700" font-family="Arial, sans-serif">Игровое поле</text>
  <text x="525" y="270" fill="#9BACD8" font-size="18" font-family="Arial, sans-serif">Несколько уровней, монеты, шипы, победа и localStorage-рекорд</text>
</svg>
